<svg xmlns="http://www.w3.org/2000/svg" viewBox="0 0 24 18">
  <path d="M18.008 0c-2.128 0-4.42.433-6.003 1.622C10.423.432 8.131 0 6.003 0 4.42 0 2.739.238 1.33.854.535 1.211 0 1.98 0 2.854v12.199c0 1.406 1.331 2.444 2.707 2.098 1.07-.27 2.204-.39 3.296-.39 1.702 0 3.514.282 4.976.995a2.261 2.261 0 0 0 2.041 0c1.463-.724 3.274-.994 4.977-.994 1.091 0 2.227.118 3.296.389A2.163 2.163 0 0 0 24 15.053V2.855c0-.876-.535-1.644-1.332-2C21.271.237 19.591 0 18.008 0zm3.82 13.766c0 .681-.633 1.179-1.31 1.06a13.884 13.884 0 0 0-2.51-.216c-1.855 0-4.53.702-6.003 1.622V3.785c1.474-.92 4.148-1.622 6.003-1.622 1.004 0 1.997.097 2.947.302a1.1 1.1 0 0 1 .873 1.06z"/>
  <path d="M13.98 7.34c-.32 0-.61-.2-.71-.52-.13-.39.09-.82.48-.94 1.54-.5 3.53-.66 5.36-.45.41.05.71.42.66.83s-.42.71-.83.66c-1.62-.19-3.39-.04-4.73.39-.08.01-.16.03-.23.03zm0 2.66c-.32 0-.61-.2-.71-.52-.13-.39.09-.82.48-.94 1.53-.5 3.53-.66 5.36-.45.41.05.71.42.66.83s-.42.71-.83.66c-1.62-.19-3.39-.04-4.73.39a.97.97 0 0 1-.23.03zm0 2.66c-.32 0-.61-.2-.71-.52-.13-.39.09-.82.48-.94 1.53-.5 3.53-.66 5.36-.45.41.05.71.42.66.83s-.42.7-.83.66c-1.62-.19-3.39-.04-4.73.39a.97.97 0 0 1-.23.03z"/>
</svg>
