<svg viewBox="0 0 19 24" xmlns="http://www.w3.org/2000/svg">
  <path d="M0 0h24v24H0z" fill="none"/>
  <path d="M12.576.708A2.37 2.37 0 0010.89 0H2.375C1.07 0 0 1.08 0 2.4v19.2C0 22.92 1.057 24 2.364 24h14.262C17.932 24 19 22.92 19 21.6V8.196c0-.636-.25-1.248-.701-1.692zm.487 18.492H5.938c-.653 0-1.188-.54-1.188-1.2s.535-1.2 1.188-1.2h7.125c.653 0 1.187.54 1.187 1.2s-.534 1.2-1.187 1.2zm0-4.8H5.938c-.653 0-1.188-.54-1.188-1.2S5.285 12 5.938 12h7.125c.653 0 1.187.54 1.187 1.2s-.534 1.2-1.187 1.2zm-2.375-7.2V1.8l6.531 6.6h-5.344c-.653 0-1.187-.54-1.187-1.2z"/>
</svg>
