<svg xmlns="http://www.w3.org/2000/svg" viewBox="0 0 24 24">
  <path fill="none" d="M0 0h24v24H0V0z"/>
  <path d="M21.169 13.176A9.1 9.1 0 0 0 21.255 12a9.1 9.1 0 0 0-.086-1.176l2.603-1.98a.594.594 0 0 0 .148-.768l-2.467-4.152c-.148-.264-.481-.36-.753-.264l-3.072 1.2a9.078 9.078 0 0 0-2.084-1.176l-.47-3.18A.602.586 0 0 0 14.47 0H9.536a.597.597 0 0 0-.605.504l-.469 3.18A9.57 9.57 0 0 0 6.377 4.86l-3.071-1.2a.61.61 0 0 0-.753.264L.086 8.076a.581.581 0 0 0 .148.768l2.603 1.98c-.05.384-.087.78-.087 1.176s.037.792.087 1.176l-2.603 1.98a.594.594 0 0 0-.148.768l2.467 4.152c.148.264.481.36.753.264l3.071-1.2a9.1 9.1 0 0 0 2.085 1.176l.469 3.18a.597.597 0 0 0 .605.504h4.934a.597.597 0 0 0 .605-.504l.469-3.18a9.545 9.545 0 0 0 2.084-1.176l3.072 1.2a.61.61 0 0 0 .753-.264l2.467-4.152a.594.594 0 0 0-.148-.768zM12.003 16.2c-2.381 0-4.318-1.884-4.318-4.2 0-2.316 1.937-4.2 4.318-4.2 2.38 0 4.318 1.884 4.318 4.2 0 2.316-1.937 4.2-4.318 4.2z"/>
</svg>
