<svg xmlns="http://www.w3.org/2000/svg" viewBox="0 0 24 24">
  <path fill="none" d="M0 0h24v24H0z"/>
  <path d="M18.805 13.2v8.4H2.351V4.8h5.9a7.694 7.694 0 0 1 .564-2.4H2.351C1.058 2.4 0 3.48 0 4.8v16.8C0 22.92 1.057 24 2.35 24h16.454c1.293 0 2.35-1.08 2.35-2.4v-6zm-1.763 6H4.113l3.232-4.236 2.304 2.832 3.232-4.248zm3.29-10.932c.518-.84.824-1.812.824-2.868 0-2.988-2.363-5.4-5.29-5.4-2.926 0-5.288 2.412-5.288 5.4 0 2.988 2.362 5.4 5.277 5.4a5.134 5.134 0 0 0 2.809-.84l3.667 3.744L24 12zm-4.465.132a2.938 3 0 0 1 0-6 2.938 3 0 0 1 0 6z"/>
</svg>
