<svg viewBox="0 0 24 24" xmlns="http://www.w3.org/2000/svg">
  <path d="M0 0h24v24H0V0z" fill="none"/>
  <path d="M21.333 0H2.666A2.675 2.675 0 00-.001 2.667v18.667A2.676 2.676 0 002.666 24h18.667C22.8 24 24 22.8 24 21.334V2.667C24 1.2 22.8 0 21.333 0zM20 21.333H4c-.734 0-1.334-.6-1.334-1.333V4c0-.734.6-1.334 1.334-1.334h16c.733 0 1.333.6 1.333 1.334v16c0 .733-.6 1.333-1.333 1.333zm-5.92-8.253l-3.134 4.026-2.08-2.506a.667.667 0 00-1.04.013l-2.32 2.973a.667.667 0 00.52 1.08H18a.667.667 0 00.534-1.066l-3.4-4.52a.664.664 0 00-1.054 0z"/>
</svg>
