<svg xmlns="http://www.w3.org/2000/svg" viewBox="0 0 21 24">
  <path fill="none" d="M0 0h24v24H0z"/>
  <path d="M18.375 1.333v1.334H15.75V1.333C15.75.6 15.16 0 14.437 0H6.564C5.84 0 5.25.6 5.25 1.333v1.334H2.625V1.333C2.625.6 2.035 0 1.312 0 .592 0 0 .6 0 1.333v21.333C0 23.4.59 24 1.313 24c.721 0 1.312-.6 1.312-1.334v-1.333H5.25v1.333C5.25 23.4 5.84 24 6.563 24h7.875c.721 0 1.312-.6 1.312-1.334v-1.333h2.625v1.333c0 .734.59 1.334 1.313 1.334.721 0 1.312-.6 1.312-1.334V1.333C21 .6 20.41 0 19.687 0c-.721 0-1.312.6-1.312 1.333zM5.25 18.666H2.625V16H5.25zm0-5.333H2.625v-2.667H5.25zM5.25 8H2.625V5.333H5.25zm13.125 10.667H15.75V16h2.625zm0-5.334H15.75v-2.666h2.625zm0-5.333H15.75V5.333h2.625z"/>
</svg>
