<svg xmlns="http://www.w3.org/2000/svg" viewBox="0 0 24 24">
  <path fill="none" d="M0 0h24v24H0V0z"/>
  <path d="M12 0C5.376 0 0 5.376 0 12s5.376 12 12 12 12-5.376 12-12S18.624 0 12 0zm0 21.6c-5.292 0-9.6-4.308-9.6-9.6S6.708 2.4 12 2.4s9.6 4.308 9.6 9.6-4.308 9.6-9.6 9.6zm-1.2-4.8h2.4v2.4h-2.4zm1.932-11.952a4.802 4.802 0 0 0-5.316 3.348A1.088 1.088 0 0 0 8.46 9.6h.24c.492 0 .888-.348 1.056-.804a2.402 2.402 0 0 1 2.76-1.536c1.14.24 1.98 1.356 1.884 2.52-.12 1.608-1.944 1.956-2.94 3.456 0 .012-.012.012-.012.024-.012.024-.024.036-.036.06-.108.18-.216.384-.3.6-.012.036-.036.06-.048.096-.012.024-.012.048-.024.084-.144.408-.24.9-.24 1.5h2.4c0-.504.132-.924.336-1.284.024-.036.036-.072.06-.108a3.31 3.31 0 0 1 .336-.468c.012-.012.024-.036.036-.048.12-.144.252-.276.396-.408 1.152-1.092 2.712-1.98 2.388-4.272-.288-2.088-1.932-3.852-4.02-4.164z"/>
</svg>
