<svg xmlns="http://www.w3.org/2000/svg" viewBox="0 0 24 24">
  <path fill="none" d="M0 0h24v24H0V0z"/>
  <path d="M17.598 15.478h-1.112l-.394-.38a9.15 9.145 0 0 0 2.083-7.513c-.661-3.91-3.927-7.034-7.869-7.512A9.157 9.152 0 0 0 .072 10.3c.479 3.939 3.604 7.203 7.517 7.864a9.15 9.145 0 0 0 7.517-2.082l.38.394v1.111l5.983 5.98a1.49 1.49 0 0 0 2.098 0 1.485 1.485 0 0 0 0-2.097zm-8.446 0a6.324 6.324 0 0 1-6.335-6.331 6.324 6.324 0 0 1 6.335-6.331 6.324 6.324 0 0 1 6.334 6.331 6.324 6.324 0 0 1-6.334 6.331z"/>
</svg>
