<svg viewBox="0 0 24 24" xmlns="http://www.w3.org/2000/svg">
  <path d="M0 0h24v24H0V0z" fill="none"/>
  <path d="M21.333 13.333H2.666A2.675 2.675 0 00-.001 16v5.333A2.676 2.676 0 002.666 24h18.667C22.8 24 24 22.8 24 21.333V16c0-1.467-1.2-2.667-2.667-2.667zm-16 8a2.675 2.675 0 01-2.667-2.667C2.666 17.2 3.866 16 5.333 16 6.8 16 8 17.2 8 18.666c0 1.467-1.2 2.667-2.667 2.667zM21.333 0H2.666A2.675 2.675 0 00-.001 2.667V8c0 1.467 1.2 2.667 2.667 2.667h18.667C22.8 10.667 24 9.467 24 8V2.667C24 1.2 22.8 0 21.333 0zm-16 8a2.675 2.675 0 01-2.667-2.667c0-1.466 1.2-2.666 2.667-2.666C6.8 2.667 8 3.867 8 5.333 8 6.8 6.8 8 5.333 8z"/>
</svg>
