<svg viewBox="0 0 24 24" xmlns="http://www.w3.org/2000/svg">
  <path d="M0 0h24v24H0V0z" fill="none"/>
  <path d="M24 5.455V1.09C24 .49 23.51 0 22.91 0h-4.365c-.6 0-1.09.49-1.09 1.09v1.092H6.545V1.09C6.546.49 6.056 0 5.456 0H1.09C.49 0 0 .49 0 1.09v4.365c0 .6.49 1.09 1.09 1.09h1.091v10.91h-1.09c-.6 0-1.092.49-1.092 1.09v4.364c0 .6.491 1.09 1.091 1.09h4.364c.6 0 1.09-.49 1.09-1.09v-1.091h10.91v1.09c0 .6.49 1.092 1.09 1.092h4.364c.6 0 1.091-.491 1.091-1.091v-4.364c0-.6-.49-1.09-1.09-1.09h-1.092V6.544h1.091c.6 0 1.091-.49 1.091-1.09zM2.182 2.182h2.182v2.182H2.182zm2.182 19.636H2.182v-2.182h2.182zm13.09-2.182H6.547v-1.09c0-.6-.491-1.092-1.091-1.092H4.364V6.545h1.09c.6 0 1.092-.49 1.092-1.09V4.362h10.909v1.091c0 .6.49 1.091 1.09 1.091h1.092v10.91h-1.091c-.6 0-1.091.49-1.091 1.09zm4.364 2.182h-2.181v-2.182h2.181zM19.637 4.363V2.18h2.181v2.182zm-6.611 2.89a1.113 1.113 0 00-1.037-.708c-.458 0-.872.283-1.025.709L7.942 15.25a.817.817 0 00.764 1.113.823.823 0 00.774-.546l.6-1.636h3.807l.611 1.647a.83.83 0 00.775.535h.01a.827.827 0 00.775-1.113zm-2.455 5.553l1.43-4.178 1.417 4.178z"/>
</svg>
