<svg xmlns="http://www.w3.org/2000/svg" viewBox="0 0 24 20">
  <path d="M1.412 12.857h2.823c.777 0 1.412-.643 1.412-1.429V8.571c0-.785-.635-1.428-1.412-1.428H1.412C.635 7.143 0 7.786 0 8.57v2.857c0 .786.635 1.429 1.412 1.429zm0 7.143h2.823c.777 0 1.412-.643 1.412-1.429v-2.857c0-.786-.635-1.428-1.412-1.428H1.412c-.777 0-1.412.642-1.412 1.428v2.857C0 19.357.635 20 1.412 20zm0-14.286h2.823c.777 0 1.412-.643 1.412-1.429V1.428C5.647.642 5.012 0 4.235 0H1.412C.635 0 0 .642 0 1.428v2.857c0 .786.635 1.429 1.412 1.429zm7.059 7.143h14.118c.776 0 1.411-.643 1.411-1.429V8.571c0-.786-.635-1.428-1.411-1.428H8.47c-.777 0-1.412.642-1.412 1.428v2.857c0 .786.635 1.429 1.412 1.429zm0 7.143h14.118c.776 0 1.411-.643 1.411-1.43v-2.857c0-.786-.635-1.429-1.411-1.429H8.47c-.777 0-1.412.643-1.412 1.429v2.857c0 .786.635 1.429 1.412 1.429zM7.059 1.429v2.857c0 .786.635 1.428 1.412 1.428h14.118c.776 0 1.411-.642 1.411-1.428V1.429C24 .643 23.365 0 22.59 0H8.47c-.776 0-1.411.643-1.411 1.43z"/>
</svg>
