<svg viewBox="0 0 100 100" xmlns="http://www.w3.org/2000/svg">
  <animateTransform attributeName="transform" dur="5s" keyTimes="0;1" repeatCount="indefinite" type="rotate" values="0;360"/>
  <path d="M89.46 43.149H100v13.702H89.46a40.051 40.051 0 01-1.861 6.946l9.127 5.27-6.85 11.867-9.128-5.27a40.051 40.051 0 01-5.086 5.085l5.27 9.127-11.866 6.851-5.27-9.127a40.051 40.051 0 01-6.946 1.861v10.54H43.148v-10.54a40.051 40.051 0 01-6.946-1.861l-5.27 9.127-11.868-6.85 5.27-9.128a40.051 40.051 0 01-5.084-5.085l-9.127 5.27-6.851-11.867 9.127-5.27a40.051 40.051 0 01-1.861-6.946H-.002V43.149h10.54a40.051 40.051 0 011.861-6.946l-9.127-5.27 6.85-11.868 9.128 5.27a40.051 40.051 0 015.085-5.084l-5.27-9.127 11.866-6.851 5.27 9.127a40.051 40.051 0 016.947-1.861V-.001H56.85v10.54a40.051 40.051 0 016.946 1.861l5.27-9.127 11.867 6.85-5.27 9.128a40.051 40.051 0 015.085 5.085l9.127-5.27 6.851 11.867-9.127 5.27a40.051 40.051 0 011.861 6.946M50 28.921a21.079 21.079 0 100 42.159 21.079 21.079 0 100-42.159"/>
</svg>
