<svg xmlns="http://www.w3.org/2000/svg" viewBox="0 0 400 436">
    <path d="M263.42 345.17h18.17c2.65 0 4.83-.85 6.53-2.55a8.85 8.85 0 0 0 2.55-6.53V172.58c0-2.65-.85-4.82-2.55-6.53a8.85 8.85 0 0 0-6.53-2.55h-18.17c-2.65 0-4.82.85-6.53 2.55a8.85 8.85 0 0 0-2.55 6.53v163.5c0 2.66.85 4.83 2.55 6.54a8.86 8.86 0 0 0 6.53 2.55zm-72.67 0h18.17c2.65 0 4.83-.85 6.53-2.55a8.83 8.83 0 0 0 2.55-6.53V172.58c0-2.65-.85-4.82-2.55-6.53a8.84 8.84 0 0 0-6.53-2.55h-18.17c-2.64 0-4.82.85-6.53 2.55a8.84 8.84 0 0 0-2.55 6.53v163.5c0 2.66.85 4.83 2.55 6.54a8.85 8.85 0 0 0 6.53 2.55zm-72.66 0h18.16c2.65 0 4.83-.85 6.53-2.55a8.86 8.86 0 0 0 2.55-6.53V172.58c0-2.65-.85-4.82-2.55-6.53a8.85 8.85 0 0 0-6.53-2.55H118.1c-2.66 0-4.83.85-6.53 2.55a8.85 8.85 0 0 0-2.56 6.53v163.5c0 2.66.85 4.83 2.56 6.54a8.84 8.84 0 0 0 6.53 2.55zM397.44 75.22a8.86 8.86 0 0 0-6.53-2.56h-87.78l-19.89-47.4c-2.84-7-7.95-12.96-15.34-17.88C260.51 2.46 253.03 0 245.46 0h-90.92c-7.57 0-15.05 2.46-22.44 7.38-7.39 4.92-12.5 10.88-15.34 17.88l-19.89 47.4H9.1c-2.65 0-4.83.86-6.53 2.56A8.85 8.85 0 0 0 0 81.75v18.17a8.8 8.8 0 0 0 2.56 6.52A8.86 8.86 0 0 0 9.09 109h27.27v270.23c0 15.71 4.45 29.1 13.35 40.16 8.9 11.08 19.6 16.61 32.1 16.61h236.37c12.5 0 23.2-5.72 32.1-17.17 8.9-11.45 13.36-25.03 13.36-40.73V109h27.27c2.65 0 4.83-.86 6.53-2.56a8.85 8.85 0 0 0 2.56-6.52V81.75c0-2.65-.86-4.83-2.56-6.53zM150.28 39.45a8 8 0 0 1 4.83-3.12h90.06c1.9.38 3.5 1.42 4.83 3.12l13.64 33.21H136.36zm177 338.65c0 4.16-.66 8-2 11.5-1.32 3.5-2.7 6.05-4.11 7.65-1.43 1.62-2.41 2.42-2.99 2.42H81.82c-.57 0-1.56-.8-2.98-2.42-1.43-1.6-2.8-4.16-4.13-7.66a32.24 32.24 0 0 1-1.98-11.5V109h254.55v269.1z"/>
</svg>

