<svg xmlns="http://www.w3.org/2000/svg" aria-hidden="true"><symbol viewBox="0 0 24 24" id="alert">
  <path d="M10.29 3.86L1.82 18a2 2 0 001.71 3h16.94a2 2 0 001.71-3L13.71 3.86a2 2 0 00-3.42 0zM12 9v4m0 4h0"></path>
</symbol><symbol viewBox="0 0 80 60" id="checkmark">
  <path d="M29.44 60c-1.23 0-2.4-.48-3.28-1.34L1.36 34.15a4.55 4.55 0 010-6.49 4.68 4.68 0 016.56 0l21.33 21.08L71.9 1.54a4.68 4.68 0 016.55-.38 4.55 4.55 0 01.37 6.48L32.9 58.47A4.67 4.67 0 0129.57 60h-.13z"></path>
</symbol><symbol viewBox="0 0 32 32" id="folder-search">
  <path fill-rule="evenodd" d="M17.309 20.016a4.5 4.5 0 11.707-.707l5.348 5.348-.707.707-5.348-5.348zM17 9l-2-4H4.003C2.897 5 2 5.89 2 6.991V25.01C2 26.109 2.9 27 3.993 27h25.014c1.1 0 1.993-.893 1.993-1.995v-14.01A2 2 0 0028.994 9H17zm-.64 1L14.4 6H3.992A1 1 0 003 6.992v18.016c0 .548.446.992.993.992h25.014A.995.995 0 0030 25V11c0-.552-.454-1-1.003-1H16.36zM14.5 20a3.5 3.5 0 100-7 3.5 3.5 0 000 7z"></path>
</symbol><symbol viewBox="0 0 32 32" id="folder">
  <path fill-rule="evenodd" d="M17 9l-2-4H4.003C2.897 5 2 5.89 2 6.991V25.01C2 26.109 2.9 27 3.993 27h25.014c1.1 0 1.993-.893 1.993-1.995v-14.01A2 2 0 0028.994 9H17zm-.64 1L14.4 6H3.992A1 1 0 003 6.992v18.016c0 .548.446.992.993.992h25.014A.995.995 0 0030 25V11c0-.552-.454-1-1.003-1H16.36z"></path>
</symbol><symbol viewBox="0 0 22 12" id="landscape">
  <path d="M8.78 5.63l1.25 1.67L13 3.33 18 10H9.54L5.53 4.63 0 12h22L13 0zM4 10l1.52-2.03L7.04 10z"></path>
</symbol><symbol viewBox="0 0 400 436" id="trash">
  <path d="M263.42 345.17h18.17c2.65 0 4.83-.85 6.53-2.55a8.85 8.85 0 002.55-6.53V172.58c0-2.65-.85-4.82-2.55-6.53a8.85 8.85 0 00-6.53-2.55h-18.17c-2.65 0-4.82.85-6.53 2.55a8.85 8.85 0 00-2.55 6.53v163.5c0 2.66.85 4.83 2.55 6.54a8.86 8.86 0 006.53 2.55zm-72.67 0h18.17c2.65 0 4.83-.85 6.53-2.55a8.83 8.83 0 002.55-6.53V172.58c0-2.65-.85-4.82-2.55-6.53a8.84 8.84 0 00-6.53-2.55h-18.17c-2.64 0-4.82.85-6.53 2.55a8.84 8.84 0 00-2.55 6.53v163.5c0 2.66.85 4.83 2.55 6.54a8.85 8.85 0 006.53 2.55zm-72.66 0h18.16c2.65 0 4.83-.85 6.53-2.55a8.86 8.86 0 002.55-6.53V172.58c0-2.65-.85-4.82-2.55-6.53a8.85 8.85 0 00-6.53-2.55H118.1c-2.66 0-4.83.85-6.53 2.55a8.85 8.85 0 00-2.56 6.53v163.5c0 2.66.85 4.83 2.56 6.54a8.84 8.84 0 006.53 2.55zM397.44 75.22a8.86 8.86 0 00-6.53-2.56h-87.78l-19.89-47.4c-2.84-7-7.95-12.96-15.34-17.88C260.51 2.46 253.03 0 245.46 0h-90.92c-7.57 0-15.05 2.46-22.44 7.38-7.39 4.92-12.5 10.88-15.34 17.88l-19.89 47.4H9.1c-2.65 0-4.83.86-6.53 2.56A8.85 8.85 0 000 81.75v18.17a8.8 8.8 0 002.56 6.52A8.86 8.86 0 009.09 109h27.27v270.23c0 15.71 4.45 29.1 13.35 40.16 8.9 11.08 19.6 16.61 32.1 16.61h236.37c12.5 0 23.2-5.72 32.1-17.17 8.9-11.45 13.36-25.03 13.36-40.73V109h27.27c2.65 0 4.83-.86 6.53-2.56a8.85 8.85 0 002.56-6.52V81.75c0-2.65-.86-4.83-2.56-6.53zM150.28 39.45a8 8 0 014.83-3.12h90.06c1.9.38 3.5 1.42 4.83 3.12l13.64 33.21H136.36zm177 338.65c0 4.16-.66 8-2 11.5-1.32 3.5-2.7 6.05-4.11 7.65-1.43 1.62-2.41 2.42-2.99 2.42H81.82c-.57 0-1.56-.8-2.98-2.42-1.43-1.6-2.8-4.16-4.13-7.66a32.24 32.24 0 01-1.98-11.5V109h254.55v269.1z"></path>
</symbol><symbol viewBox="0 0 60 60" id="x">
  <path d="M58.65 52.13l-22.14-22.2L58.53 7.88a4.6 4.6 0 10-6.5-6.52L30 23.42 7.98 1.35a4.6 4.6 0 10-6.5 6.52l22.01 22.07L1.35 52.13a4.62 4.62 0 006.5 6.52L30 36.45l22.15 22.2a4.58 4.58 0 006.5 0 4.62 4.62 0 000-6.52z"></path>
</symbol></svg>