<svg xmlns="http://www.w3.org/2000/svg" aria-hidden="true"><symbol viewBox="0 0 14 24" id="angle-left">
  <path d="M13.379.628a2.118 2.14 0 0 0-2.998 0l-9.76 9.858a2.118 2.14 0 0 0 0 3.029l9.76 9.858a2.12 2.141 0 1 0 2.998-3.029l-8.25-8.354 8.25-8.334c.808-.837.808-2.212 0-3.028z"/>
</symbol><symbol viewBox="0 0 14 24" id="angle-right">
  <path fill="none" d="M0 0h24v24H0z"/>
  <path d="M.622.631a2.118 2.14 0 0 0 0 3.031l8.249 8.34-8.25 8.34a2.12 2.143 0 1 0 2.999 3.03l9.758-9.865a2.118 2.14 0 0 0 0-3.031L3.62.61C2.812-.207 1.45-.207.622.63z"/>
</symbol><symbol viewBox="0 0 24 24" id="archive">
  <path fill="none" d="M0 0h24v24H0V0z"/>
  <path d="M20.947 0H3.054L.001 3.72V24h24V3.72zM12 19.333 4.667 12h4.667V9.333h5.333V12h4.667zM2.827 2.666l1.08-1.333h16l1.253 1.333z"/>
</symbol><symbol viewBox="0 0 24 24" id="bar-chart-square-full">
  <path d="M24 0H0v24h24zM8 18.667H5.333V9.334H8zm5.333 0h-2.666V5.334h2.666zm5.334 0H16v-5.333h2.667z"/>
</symbol><symbol viewBox="0 0 24 24" id="bar-chart-square">
  <path d="M8 18.667H5.333V9.334H8zm5.333 0h-2.666V5.334h2.666zm5.334 0H16v-5.333h2.667zm2.666 2.667H2.666V2.667h18.667zM24 0H0v24h24z"/>
</symbol><symbol viewBox="0 0 24 24" id="bar-chart">
  <path d="M0 7.2h5.143V24H0zM9.6 0h4.8v24H9.6zm9.6 13.714H24V24h-4.8z"/>
</symbol><symbol viewBox="0 0 24 18" id="book">
  <path d="M18.008 0c-2.128 0-4.42.433-6.003 1.622C10.423.432 8.131 0 6.003 0 4.42 0 2.739.238 1.33.854.535 1.211 0 1.98 0 2.854v12.199c0 1.406 1.331 2.444 2.707 2.098 1.07-.27 2.204-.39 3.296-.39 1.702 0 3.514.282 4.976.995a2.261 2.261 0 0 0 2.041 0c1.463-.724 3.274-.994 4.977-.994 1.091 0 2.227.118 3.296.389A2.163 2.163 0 0 0 24 15.053V2.855c0-.876-.535-1.644-1.332-2C21.271.237 19.591 0 18.008 0zm3.82 13.766c0 .681-.633 1.179-1.31 1.06a13.884 13.884 0 0 0-2.51-.216c-1.855 0-4.53.702-6.003 1.622V3.785c1.474-.92 4.148-1.622 6.003-1.622 1.004 0 1.997.097 2.947.302a1.1 1.1 0 0 1 .873 1.06z"/>
  <path d="M13.98 7.34c-.32 0-.61-.2-.71-.52-.13-.39.09-.82.48-.94 1.54-.5 3.53-.66 5.36-.45.41.05.71.42.66.83s-.42.71-.83.66c-1.62-.19-3.39-.04-4.73.39-.08.01-.16.03-.23.03zm0 2.66c-.32 0-.61-.2-.71-.52-.13-.39.09-.82.48-.94 1.53-.5 3.53-.66 5.36-.45.41.05.71.42.66.83s-.42.71-.83.66c-1.62-.19-3.39-.04-4.73.39a.97.97 0 0 1-.23.03zm0 2.66c-.32 0-.61-.2-.71-.52-.13-.39.09-.82.48-.94 1.53-.5 3.53-.66 5.36-.45.41.05.71.42.66.83s-.42.7-.83.66c-1.62-.19-3.39-.04-4.73.39a.97.97 0 0 1-.23.03z"/>
</symbol><symbol viewBox="0 0 24 24" id="broken-image">
  <path fill="none" d="M0 0h24v24H0V0z"/>
  <path d="M24 2.667v8.786l-3.053-3.066a1.344 1.344 0 0 0-1.894 0l-4.386 4.4L10.28 8.4a1.328 1.328 0 0 0-1.88 0L4 12.787 0 8.773V2.667C0 1.2 1.2 0 2.667 0h18.667C22.8 0 24 1.2 24 2.667zm-4 8.56 4 4.013v6.093C24 22.8 22.8 24 21.333 24H2.666A2.675 2.675 0 0 1 0 21.333V12.56l3.053 3.053c.52.52 1.36.52 1.88 0l4.4-4.4L13.72 15.6c.52.52 1.36.52 1.88 0z"/>
</symbol><symbol viewBox="0 0 22 24" id="calendar">
  <path fill="none" d="M0 0h24v24H0z"/>
  <path d="M19.8 2.182h-1.1V0h-2.2v2.182h-11V0H3.3v2.182H2.2c-1.21 0-2.2.982-2.2 2.182v17.455C0 23.019.99 24 2.2 24h17.6c1.21 0 2.2-.981 2.2-2.181V4.364c0-1.2-.99-2.182-2.2-2.182zm0 19.636H2.2V7.636h17.6z"/>
</symbol><symbol viewBox="0 0 22 24" id="camera-roll">
  <path fill="none" d="M0 0h24v24H0z"/>
  <path d="M13.2 4.571c0-1.257-.99-2.285-2.2-2.285H9.9V1.143C9.9.514 9.405 0 8.8 0H4.4c-.605 0-1.1.514-1.1 1.143v1.143H2.2C.99 2.286 0 3.314 0 4.57v17.143C0 22.972.99 24 2.2 24H11c1.21 0 2.2-1.029 2.2-2.286H22V4.571zM11 19.428H8.8v-2.285H11zm0-10.286H8.8V6.857H11zm4.4 10.286h-2.2v-2.285h2.2zm0-10.286h-2.2V6.857h2.2zm4.4 10.286h-2.2v-2.285h2.2zm0-10.286h-2.2V6.857h2.2z"/>
</symbol><symbol viewBox="0 0 24 18" id="check">
  <path fill="none" d="M0 0h24v24H0z"/>
  <path d="M7.425 14.59 2.42 9.58a1.407 1.409 0 0 0-2.002 0 1.407 1.409 0 0 0 0 2.004l5.991 5.998a1.423 1.423 0 0 0 2.016 0l15.156-15.16a1.407 1.409 0 0 0 0-2.003 1.407 1.409 0 0 0-2.001 0z"/>
</symbol><symbol viewBox="0 0 24 24" id="close">
  <path fill="none" d="M0 0h24v24H0V0z"/>
  <path d="M23.469.55a1.813 1.813 0 0 0-2.567 0l-8.901 8.883L3.099.532A1.815 1.815 0 1 0 .532 3.098L9.434 12 .532 20.9A1.815 1.815 0 1 0 3.1 23.468l8.9-8.901 8.901 8.901a1.815 1.815 0 1 0 2.567-2.567L14.567 12l8.902-8.902a1.824 1.824 0 0 0 0-2.548z"/>
</symbol><symbol viewBox="0 0 24 14" id="code">
  <path fill="none" d="M0 0h24v24H0z"/>
  <path d="M7.867 11.882 2.984 7l4.883-4.88a1.232 1.232 0 0 0 0-1.753 1.232 1.232 0 0 0-1.753 0L.366 6.112a1.247 1.247 0 0 0 0 1.764l5.748 5.758a1.232 1.232 0 0 0 1.753 0 1.232 1.232 0 0 0 0-1.752zm8.265 0L21.017 7l-4.884-4.88a1.232 1.232 0 0 1 0-1.753 1.232 1.232 0 0 1 1.753 0l5.748 5.746a1.246 1.246 0 0 1 0 1.764l-5.748 5.758a1.232 1.232 0 0 1-1.753 0 1.232 1.232 0 0 1 0-1.752z"/>
</symbol><symbol viewBox="0 0 24 24" id="dials">
  <path fill="none" d="M0 0h24v24H0V0z"/>
  <path d="M0 18.667v2.667h8v-2.667zm0-16v2.667h13.333V2.667zM13.333 24v-2.667H24v-2.666H13.333V16h-2.667v8zm-8-16v2.667H0v2.666h5.333V16H8V8zM24 13.333v-2.666H10.667v2.666zM16 8h2.667V5.333H24V2.667h-5.333V0H16z"/>
</symbol><symbol viewBox="0 0 19 24" id="document">
  <path fill="none" d="M0 0h24v24H0z"/>
  <path d="M12.576.708A2.37 2.37 0 0 0 10.89 0H2.375C1.07 0 0 1.08 0 2.4v19.2C0 22.92 1.057 24 2.364 24h14.262C17.932 24 19 22.92 19 21.6V8.196c0-.636-.25-1.248-.701-1.692zm.487 18.492H5.938c-.653 0-1.188-.54-1.188-1.2s.535-1.2 1.188-1.2h7.125c.653 0 1.187.54 1.187 1.2s-.534 1.2-1.187 1.2zm0-4.8H5.938c-.653 0-1.188-.54-1.188-1.2S5.285 12 5.938 12h7.125c.653 0 1.187.54 1.187 1.2s-.534 1.2-1.187 1.2zm-2.375-7.2V1.8l6.531 6.6h-5.344c-.653 0-1.187-.54-1.187-1.2z"/>
</symbol><symbol viewBox="0 0 24 24" id="edit">
  <path fill="none" d="M0 0h24v24H0z"/>
  <path d="M0 19.001v5h5L19.743 9.254l-4.999-4.999zM23.61 5.39a1.328 1.328 0 0 0 0-1.88L20.49.39a1.328 1.328 0 0 0-1.88 0l-2.439 2.44 5 5z"/>
</symbol><symbol viewBox="0 0 24 24" id="filter">
  <path fill="none" d="M0 0h24m0 24H0"/>
  <path d="M4.25 5.61C6.27 8.2 10 13 10 13v6c0 .55.45 1 1 1h2c.55 0 1-.45 1-1v-6s3.72-4.8 5.74-7.39A.998.998 0 0 0 18.95 4H5.04c-.83 0-1.3.95-.79 1.61z"/>
  <path fill="none" d="M0 0h24v24H0V0z"/>
</symbol><symbol viewBox="0 0 24 19" id="folder">
  <path d="M9.6 0H2.4A2.384 2.384 0 0 0 .012 2.375L0 16.625C0 17.931 1.08 19 2.4 19h19.2c1.32 0 2.4-1.069 2.4-2.375V4.75c0-1.306-1.08-2.375-2.4-2.375H12z"/>
</symbol><symbol viewBox="0 0 24 19" id="font">
  <path fill="none" d="M0 0h24v24H0z"/>
  <path d="M7.579 1.9c0 1.051.846 1.9 1.895 1.9h4.42v13.3a1.895 1.895 0 1 0 3.79 0V3.8h4.421A1.895 1.895 0 0 0 24 1.9C24 .849 23.154 0 22.105 0H9.473a1.895 1.895 0 0 0-1.895 1.9zm-5.684 8.233h1.894V17.1a1.895 1.895 0 1 0 3.79 0v-6.967h1.895a1.895 1.895 0 0 0 1.894-1.9c0-1.051-.846-1.9-1.894-1.9h-7.58A1.895 1.895 0 0 0 0 8.233c0 1.052.846 1.9 1.895 1.9z"/>
</symbol><symbol viewBox="0 0 24 24" id="gear">
  <path fill="none" d="M0 0h24v24H0V0z"/>
  <path d="M21.169 13.176A9.1 9.1 0 0 0 21.255 12a9.1 9.1 0 0 0-.086-1.176l2.603-1.98a.594.594 0 0 0 .148-.768l-2.467-4.152c-.148-.264-.481-.36-.753-.264l-3.072 1.2a9.078 9.078 0 0 0-2.084-1.176l-.47-3.18A.602.586 0 0 0 14.47 0H9.536a.597.597 0 0 0-.605.504l-.469 3.18A9.57 9.57 0 0 0 6.377 4.86l-3.071-1.2a.61.61 0 0 0-.753.264L.086 8.076a.581.581 0 0 0 .148.768l2.603 1.98c-.05.384-.087.78-.087 1.176s.037.792.087 1.176l-2.603 1.98a.594.594 0 0 0-.148.768l2.467 4.152c.148.264.481.36.753.264l3.071-1.2a9.1 9.1 0 0 0 2.085 1.176l.469 3.18a.597.597 0 0 0 .605.504h4.934a.597.597 0 0 0 .605-.504l.469-3.18a9.545 9.545 0 0 0 2.084-1.176l3.072 1.2a.61.61 0 0 0 .753-.264l2.467-4.152a.594.594 0 0 0-.148-.768zM12.003 16.2c-2.381 0-4.318-1.884-4.318-4.2 0-2.316 1.937-4.2 4.318-4.2 2.38 0 4.318 1.884 4.318 4.2 0 2.316-1.937 4.2-4.318 4.2z"/>
</symbol><symbol viewBox="0 0 24 24" id="image-search">
  <path fill="none" d="M0 0h24v24H0z"/>
  <path d="M18.805 13.2v8.4H2.351V4.8h5.9a7.694 7.694 0 0 1 .564-2.4H2.351C1.058 2.4 0 3.48 0 4.8v16.8C0 22.92 1.057 24 2.35 24h16.454c1.293 0 2.35-1.08 2.35-2.4v-6zm-1.763 6H4.113l3.232-4.236 2.304 2.832 3.232-4.248zm3.29-10.932c.518-.84.824-1.812.824-2.868 0-2.988-2.363-5.4-5.29-5.4-2.926 0-5.288 2.412-5.288 5.4 0 2.988 2.362 5.4 5.277 5.4a5.134 5.134 0 0 0 2.809-.84l3.667 3.744L24 12zm-4.465.132a2.938 3 0 0 1 0-6 2.938 3 0 0 1 0 6z"/>
</symbol><symbol viewBox="0 0 24 24" id="image-square">
  <path fill="none" d="M0 0h24v24H0V0z"/>
  <path d="M21.333 0H2.666A2.675 2.675 0 0 0-.001 2.667v18.667A2.676 2.676 0 0 0 2.666 24h18.667C22.8 24 24 22.8 24 21.334V2.667C24 1.2 22.8 0 21.333 0zM20 21.333H4c-.734 0-1.334-.6-1.334-1.333V4c0-.734.6-1.334 1.334-1.334h16c.733 0 1.333.6 1.333 1.334v16c0 .733-.6 1.333-1.333 1.333zm-5.92-8.253-3.134 4.026-2.08-2.506a.667.667 0 0 0-1.04.013l-2.32 2.973a.667.667 0 0 0 .52 1.08H18a.667.667 0 0 0 .534-1.066l-3.4-4.52a.664.664 0 0 0-1.054 0z"/>
</symbol><symbol viewBox="0 0 24 24" id="info">
  <path fill="none" d="M0 0h24v24H0V0z"/>
  <path d="M12 0C5.376 0 0 5.376 0 12s5.376 12 12 12 12-5.376 12-12S18.624 0 12 0zm0 18c-.66 0-1.2-.54-1.2-1.2V12c0-.66.54-1.2 1.2-1.2s1.2.54 1.2 1.2v4.8c0 .66-.54 1.2-1.2 1.2zm1.2-9.6h-2.4V6h2.4z"/>
</symbol><symbol viewBox="0 0 24 24" id="launch">
  <path fill="none" d="M0 0h24v24H0z"/>
  <path d="M21.333 21.333H2.666V2.666h9.333V-.001H2.666A2.667 2.667 0 0 0-.001 2.666v18.667A2.667 2.667 0 0 0 2.666 24h18.667C22.8 24 24 22.8 24 21.333V12h-2.667zM14.666 0v2.667h4.787L6.346 15.774l1.88 1.88L21.333 4.547v4.786H24V0z"/>
</symbol><symbol viewBox="0 0 24 19" id="list-bullets">
  <path d="M1.946 7.6C.869 7.6 0 8.449 0 9.5s.87 1.9 1.946 1.9c1.077 0 1.946-.849 1.946-1.9s-.87-1.9-1.946-1.9zm0-7.6C.869 0 0 .849 0 1.9s.87 1.9 1.946 1.9c1.077 0 1.946-.849 1.946-1.9S3.022 0 1.946 0zm0 15.2C.869 15.2 0 16.061 0 17.1S.882 19 1.946 19s1.946-.861 1.946-1.9-.87-1.9-1.946-1.9zm3.892 3.167H24v-2.534H5.838zm0-7.6H24V8.233H5.838zm0-10.133v2.533H24V.634z"/>
</symbol><symbol viewBox="0 0 17 24" id="location">
  <path fill="none" d="M0 0h24v24H0z"/>
  <path d="M8.5 0C3.8 0 0 3.858 0 8.629c0 5.14 5.367 12.228 7.577 14.928a1.194 1.194 0 0 0 1.858 0C11.633 20.857 17 13.769 17 8.629 17 3.859 13.2 0 8.5 0zm0 11.71a3.036 3.082 0 0 1 0-6.163 3.036 3.082 0 0 1 0 6.163z"/>
</symbol><symbol viewBox="0 0 24 6" id="more-horizontal">
  <path fill="none" d="M0 0h24v24H0z"/>
  <path d="M3 0C1.35 0 0 1.35 0 3s1.35 3 3 3 3-1.35 3-3-1.35-3-3-3zm18 0c-1.65 0-3 1.35-3 3s1.35 3 3 3 3-1.35 3-3-1.35-3-3-3zm-9 0c-1.65 0-3 1.35-3 3s1.35 3 3 3 3-1.35 3-3-1.35-3-3-3z"/>
</symbol><symbol viewBox="0 0 6 24" id="more-vertical">
  <path fill="none" d="M0 0h24v24H0z"/>
  <path d="M3 6c1.65 0 3-1.35 3-3S4.65 0 3 0 0 1.35 0 3s1.35 3 3 3zm0 3c-1.65 0-3 1.35-3 3s1.35 3 3 3 3-1.35 3-3-1.35-3-3-3zm0 9c-1.65 0-3 1.35-3 3s1.35 3 3 3 3-1.35 3-3-1.35-3-3-3z"/>
</symbol><symbol viewBox="0 0 21 24" id="movie">
  <path fill="none" d="M0 0h24v24H0z"/>
  <path d="M18.375 1.333v1.334H15.75V1.333C15.75.6 15.16 0 14.437 0H6.564C5.84 0 5.25.6 5.25 1.333v1.334H2.625V1.333C2.625.6 2.035 0 1.312 0 .592 0 0 .6 0 1.333v21.333C0 23.4.59 24 1.313 24c.721 0 1.312-.6 1.312-1.334v-1.333H5.25v1.333C5.25 23.4 5.84 24 6.563 24h7.875c.721 0 1.312-.6 1.312-1.334v-1.333h2.625v1.333c0 .734.59 1.334 1.313 1.334.721 0 1.312-.6 1.312-1.334V1.333C21 .6 20.41 0 19.687 0c-.721 0-1.312.6-1.312 1.333zM5.25 18.666H2.625V16H5.25zm0-5.333H2.625v-2.667H5.25zM5.25 8H2.625V5.333H5.25zm13.125 10.667H15.75V16h2.625zm0-5.334H15.75v-2.666h2.625zm0-5.333H15.75V5.333h2.625z"/>
</symbol><symbol viewBox="0 0 16 24" id="music-note">
  <path fill="none" d="M0 0h24v24H0z"/>
  <path d="M8 2.666v11.4c-1.253-.72-2.8-1-4.44-.427-1.786.64-3.159 2.226-3.479 4.093a5.342 5.342 0 0 0 6.12 6.199c2.613-.413 4.466-2.813 4.466-5.466V5.333h2.667C14.8 5.333 16 4.133 16 2.667S14.8 0 13.333 0h-2.666a2.674 2.674 0 0 0-2.666 2.667z"/>
</symbol><symbol viewBox="0 0 24 24" id="play-circle">
  <path d="m10.56 16.68 5.604-4.2a.596.596 0 0 0 0-.96l-5.604-4.2a.6.6 0 0 0-.96.48v8.4a.6.6 0 0 0 .96.48zM12 0C5.376 0 0 5.376 0 12s5.376 12 12 12 12-5.376 12-12S18.624 0 12 0zm0 21.6c-5.292 0-9.6-4.308-9.6-9.6S6.708 2.4 12 2.4s9.6 4.308 9.6 9.6-4.308 9.6-9.6 9.6z"/>
</symbol><symbol viewBox="0 0 20 24" id="play">
  <path d="M0 1.942v20.114c0 1.533 1.715 2.465 3.036 1.63L19.083 13.63a1.971 1.942 0 0 0 0-3.28L3.036.31A1.967 1.938 0 0 0 0 1.941z"/>
</symbol><symbol viewBox="0 0 24 24" id="question-circle">
  <path fill="none" d="M0 0h24v24H0V0z"/>
  <path d="M12 0C5.376 0 0 5.376 0 12s5.376 12 12 12 12-5.376 12-12S18.624 0 12 0zm0 21.6c-5.292 0-9.6-4.308-9.6-9.6S6.708 2.4 12 2.4s9.6 4.308 9.6 9.6-4.308 9.6-9.6 9.6zm-1.2-4.8h2.4v2.4h-2.4zm1.932-11.952a4.802 4.802 0 0 0-5.316 3.348A1.088 1.088 0 0 0 8.46 9.6h.24c.492 0 .888-.348 1.056-.804a2.402 2.402 0 0 1 2.76-1.536c1.14.24 1.98 1.356 1.884 2.52-.12 1.608-1.944 1.956-2.94 3.456 0 .012-.012.012-.012.024-.012.024-.024.036-.036.06-.108.18-.216.384-.3.6-.012.036-.036.06-.048.096-.012.024-.012.048-.024.084-.144.408-.24.9-.24 1.5h2.4c0-.504.132-.924.336-1.284.024-.036.036-.072.06-.108a3.31 3.31 0 0 1 .336-.468c.012-.012.024-.036.036-.048.12-.144.252-.276.396-.408 1.152-1.092 2.712-1.98 2.388-4.272-.288-2.088-1.932-3.852-4.02-4.164z"/>
</symbol><symbol viewBox="0 0 24 24" id="question">
  <path fill="none" d="M0 0h24v24H0z"/>
  <path d="M12 0C5.376 0 0 5.376 0 12s5.376 12 12 12 12-5.376 12-12S18.624 0 12 0zm1.2 20.4h-2.4V18h2.4zm2.484-9.3-1.08 1.104C13.74 13.08 13.2 13.8 13.2 15.6h-2.4V15c0-1.32.54-2.52 1.404-3.396l1.488-1.512A2.346 2.346 0 0 0 14.4 8.4C14.4 7.08 13.32 6 12 6S9.6 7.08 9.6 8.4H7.2c0-2.652 2.148-4.8 4.8-4.8s4.8 2.148 4.8 4.8a3.818 3.818 0 0 1-1.116 2.7z"/>
</symbol><symbol viewBox="0 0 24 24" id="search">
  <path fill="none" d="M0 0h24v24H0V0z"/>
  <path d="M17.598 15.478h-1.112l-.394-.38a9.15 9.145 0 0 0 2.083-7.513c-.661-3.91-3.927-7.034-7.869-7.512A9.157 9.152 0 0 0 .072 10.3c.479 3.939 3.604 7.203 7.517 7.864a9.15 9.145 0 0 0 7.517-2.082l.38.394v1.111l5.983 5.98a1.49 1.49 0 0 0 2.098 0 1.485 1.485 0 0 0 0-2.097zm-8.446 0a6.324 6.324 0 0 1-6.335-6.331 6.324 6.324 0 0 1 6.335-6.331 6.324 6.324 0 0 1 6.334 6.331 6.324 6.324 0 0 1-6.334 6.331z"/>
</symbol><symbol viewBox="0 0 24 24" id="server">
  <path fill="none" d="M0 0h24v24H0V0z"/>
  <path d="M21.333 13.333H2.666A2.675 2.675 0 0 0-.001 16v5.333A2.676 2.676 0 0 0 2.666 24h18.667C22.8 24 24 22.8 24 21.333V16c0-1.467-1.2-2.667-2.667-2.667zm-16 8a2.675 2.675 0 0 1-2.667-2.667C2.666 17.2 3.866 16 5.333 16 6.8 16 8 17.2 8 18.666c0 1.467-1.2 2.667-2.667 2.667zM21.333 0H2.666A2.675 2.675 0 0 0-.001 2.667V8c0 1.467 1.2 2.667 2.667 2.667h18.667C22.8 10.667 24 9.467 24 8V2.667C24 1.2 22.8 0 21.333 0zm-16 8a2.675 2.675 0 0 1-2.667-2.667c0-1.466 1.2-2.666 2.667-2.666C6.8 2.667 8 3.867 8 5.333 8 6.8 6.8 8 5.333 8z"/>
</symbol><symbol viewBox="0 0 24 24" id="shape">
  <path fill="none" d="M0 0h24v24H0V0z"/>
  <path d="M24 5.455V1.09C24 .49 23.51 0 22.91 0h-4.365c-.6 0-1.09.49-1.09 1.09v1.092H6.545V1.09C6.546.49 6.056 0 5.456 0H1.09C.49 0 0 .49 0 1.09v4.365c0 .6.49 1.09 1.09 1.09h1.091v10.91h-1.09c-.6 0-1.092.49-1.092 1.09v4.364c0 .6.491 1.09 1.091 1.09h4.364c.6 0 1.09-.49 1.09-1.09v-1.091h10.91v1.09c0 .6.49 1.092 1.09 1.092h4.364c.6 0 1.091-.491 1.091-1.091v-4.364c0-.6-.49-1.09-1.09-1.09h-1.092V6.544h1.091c.6 0 1.091-.49 1.091-1.09zM2.182 2.182h2.182v2.182H2.182zm2.182 19.636H2.182v-2.182h2.182zm13.09-2.182H6.547v-1.09c0-.6-.491-1.092-1.091-1.092H4.364V6.545h1.09c.6 0 1.092-.49 1.092-1.09V4.362h10.909v1.091c0 .6.49 1.091 1.09 1.091h1.092v10.91h-1.091c-.6 0-1.091.49-1.091 1.09zm4.364 2.182h-2.181v-2.182h2.181zM19.637 4.363V2.18h2.181v2.182zm-6.611 2.89a1.113 1.113 0 0 0-1.037-.708c-.458 0-.872.283-1.025.709L7.942 15.25a.817.817 0 0 0 .764 1.113.823.823 0 0 0 .774-.546l.6-1.636h3.807l.611 1.647a.83.83 0 0 0 .775.535h.01a.827.827 0 0 0 .775-1.113zm-2.455 5.553 1.43-4.178 1.417 4.178z"/>
</symbol><symbol viewBox="0 0 24 24" id="stop-sign">
  <path d="M16.973 0H7.026L0 7.027v9.946L7.026 24h9.947L24 16.973V7.027zM12 19.067c-.96 0-1.734-.773-1.734-1.733S11.04 15.6 12 15.6s1.733.774 1.733 1.734-.773 1.733-1.733 1.733zm1.333-5.733h-2.667v-8h2.667z"/>
</symbol><symbol viewBox="0 0 24 19" id="storage">
  <path d="M2.4 19h19.2c1.32 0 2.4-1.069 2.4-2.375s-1.08-2.375-2.4-2.375H2.4c-1.32 0-2.4 1.069-2.4 2.375S1.08 19 2.4 19zm0-3.563h2.4v2.376H2.4zM0 2.377C0 3.682 1.08 4.75 2.4 4.75h19.2c1.32 0 2.4-1.07 2.4-2.375S22.92 0 21.6 0H2.4C1.08 0 0 1.069 0 2.376zm4.8 1.187H2.4V1.188h2.4zm-2.4 8.313h19.2c1.32 0 2.4-1.07 2.4-2.375s-1.08-2.375-2.4-2.375H2.4C1.08 7.126 0 8.194 0 9.5s1.08 2.375 2.4 2.375zm0-3.563h2.4v2.375H2.4z"/>
</symbol><symbol viewBox="0 0 19 24" id="trash-restore">
  <path d="M19 1.333h-4.75L12.893 0H6.107L4.75 1.333H0V4h19zm-17.643 4v16C1.357 22.8 2.578 24 4.071 24h10.857c1.493 0 2.715-1.2 2.715-2.667v-16zm10.857 9.334V20H6.785v-5.333H4.071L9.5 9.333l5.428 5.334z"/>
</symbol><symbol viewBox="0 0 19 24" id="trash">
  <path d="M1.357 21.333C1.357 22.8 2.58 24 4.071 24h10.857c1.493 0 2.715-1.2 2.715-2.667v-16H1.357zM19 1.333h-4.75L12.893 0H6.107L4.75 1.333H0V4h19z"/>
</symbol><symbol viewBox="0 0 24 20" id="view-list">
  <path d="M1.412 12.857h2.823c.777 0 1.412-.643 1.412-1.429V8.571c0-.785-.635-1.428-1.412-1.428H1.412C.635 7.143 0 7.786 0 8.57v2.857c0 .786.635 1.429 1.412 1.429zm0 7.143h2.823c.777 0 1.412-.643 1.412-1.429v-2.857c0-.786-.635-1.428-1.412-1.428H1.412c-.777 0-1.412.642-1.412 1.428v2.857C0 19.357.635 20 1.412 20zm0-14.286h2.823c.777 0 1.412-.643 1.412-1.429V1.428C5.647.642 5.012 0 4.235 0H1.412C.635 0 0 .642 0 1.428v2.857c0 .786.635 1.429 1.412 1.429zm7.059 7.143h14.118c.776 0 1.411-.643 1.411-1.429V8.571c0-.786-.635-1.428-1.411-1.428H8.47c-.777 0-1.412.642-1.412 1.428v2.857c0 .786.635 1.429 1.412 1.429zm0 7.143h14.118c.776 0 1.411-.643 1.411-1.43v-2.857c0-.786-.635-1.429-1.411-1.429H8.47c-.777 0-1.412.643-1.412 1.429v2.857c0 .786.635 1.429 1.412 1.429zM7.059 1.429v2.857c0 .786.635 1.428 1.412 1.428h14.118c.776 0 1.411-.642 1.411-1.428V1.429C24 .643 23.365 0 22.59 0H8.47c-.776 0-1.411.643-1.411 1.43z"/>
</symbol><symbol viewBox="0 0 24 18" id="view-tiles">
  <path d="M1.385 8.308h4.153c.762 0 1.385-.623 1.385-1.385V1.385C6.923.623 6.3 0 5.538 0H1.385C.623 0 0 .623 0 1.385v5.538c0 .762.623 1.385 1.385 1.385zm0 9.692h4.153c.762 0 1.385-.623 1.385-1.385v-5.538c0-.762-.623-1.385-1.385-1.385H1.385C.623 9.692 0 10.315 0 11.077v5.538C0 17.377.623 18 1.385 18zm8.307 0h4.154c.762 0 1.385-.623 1.385-1.385v-5.538c0-.762-.623-1.385-1.385-1.385H9.692c-.761 0-1.384.623-1.384 1.385v5.538c0 .762.623 1.385 1.384 1.385zM18 18h4.154c.761 0 1.384-.623 1.384-1.385v-5.538c0-.762-.623-1.385-1.384-1.385H18c-.762 0-1.385.623-1.385 1.385v5.538c0 .762.623 1.385 1.385 1.385zM9.692 8.308h4.154c.762 0 1.385-.623 1.385-1.385V1.385A1.39 1.39 0 0 0 13.846 0H9.692c-.761 0-1.384.623-1.384 1.385v5.538c0 .762.623 1.385 1.384 1.385zm6.923-6.923v5.538c0 .762.623 1.385 1.385 1.385h4.154c.761 0 1.384-.623 1.384-1.385V1.385C23.538.623 22.915 0 22.154 0H18c-.762 0-1.385.623-1.385 1.385z"/>
</symbol><symbol viewBox="0 0 24 24" id="volume">
  <path d="M0 7.895v8.21h5.333L12 22.946V1.053L5.333 7.895zM18 12a6 6.157 0 0 0-3.333-5.514V17.5C16.64 16.5 18 14.422 18 12zM14.667 0v2.819C18.52 3.995 21.333 7.663 21.333 12c0 4.338-2.813 8.005-6.666 9.181V24C20.013 22.755 24 17.856 24 12S20.013 1.245 14.667 0z"/>
</symbol><symbol viewBox="0 0 24 21" id="warning">
  <path d="M2.52 21h18.96c1.94 0 3.148-2.062 2.179-3.704l-9.48-16.064c-.97-1.642-3.387-1.642-4.357 0L.342 17.296C-.628 18.938.582 21 2.52 21zM12 12.357c-.692 0-1.259-.556-1.259-1.235v-2.47c0-.679.567-1.234 1.259-1.234s1.259.556 1.259 1.235v2.47c0 .678-.567 1.234-1.259 1.234zm1.259 4.939h-2.518v-2.47h2.518z"/>
</symbol></svg>