<svg xmlns="http://www.w3.org/2000/svg" aria-hidden="true"><symbol viewBox="0 0 24 24" id="angle-left">
  <path d="M0 0h24v24H0V0z" fill="none"></path>
  <path d="M14.91 6.71a.996.996 0 00-1.41 0L8.91 11.3a.996.996 0 000 1.41l4.59 4.59a.996.996 0 101.41-1.41L11.03 12l3.88-3.88c.38-.39.38-1.03 0-1.41z"></path>
</symbol><symbol viewBox="0 0 24 24" id="angle-right">
  <path d="M0 0h24v24H0V0z" fill="none"></path>
  <path d="M9.31 6.71a.996.996 0 000 1.41L13.19 12l-3.88 3.88a.996.996 0 101.41 1.41l4.59-4.59a.996.996 0 000-1.41L10.72 6.7c-.38-.38-1.02-.38-1.41.01z"></path>
</symbol><symbol viewBox="0 0 24 24" id="archive">
  <path d="M0 0h24v24H0V0z" fill="none"></path>
  <path d="M18.71 3H5.29L3 5.79V21h18V5.79L18.71 3zM12 17.5L6.5 12H10v-2h4v2h3.5L12 17.5zM5.12 5l.81-1h12l.94 1H5.12z"></path>
</symbol><symbol viewBox="0 0 24 24" id="bar-chart-square-full">
  <path d="M21 3H3v18h18V3zM9 17H7v-7h2v7zm4 0h-2V7h2v10zm4 0h-2v-4h2v4z"></path>
</symbol><symbol viewBox="0 0 24 24" id="bar-chart-square">
  <path d="M9 17H7v-7h2v7zm4 0h-2V7h2v10zm4 0h-2v-4h2v4zm2 2H5V5h14v14zm2-16H3v18h18V3z"></path>
</symbol><symbol viewBox="0 0 24 24" id="bar-chart">
  <path d="M5 9.2h3V19H5V9.2zM10.6 5h2.8v14h-2.8V5zm5.6 8H19v6h-2.8v-6z"></path>
</symbol><symbol viewBox="0 0 24 24" id="book">
  <g fill="none">
    <path d="M0 0h24v24H0z"></path>
    <path d="M0 0h24v24H0z"></path>
  </g>
  <path d="M17.5 4.5c-1.95 0-4.05.4-5.5 1.5-1.45-1.1-3.55-1.5-5.5-1.5-1.45 0-2.99.22-4.28.79C1.49 5.62 1 6.33 1 7.14v11.28c0 1.3 1.22 2.26 2.48 1.94.98-.25 2.02-.36 3.02-.36 1.56 0 3.22.26 4.56.92.6.3 1.28.3 1.87 0 1.34-.67 3-.92 4.56-.92 1 0 2.04.11 3.02.36 1.26.33 2.48-.63 2.48-1.94V7.14c0-.81-.49-1.52-1.22-1.85-1.28-.57-2.82-.79-4.27-.79zM21 17.23c0 .63-.58 1.09-1.2.98-.75-.14-1.53-.2-2.3-.2-1.7 0-4.15.65-5.5 1.5V8c1.35-.85 3.8-1.5 5.5-1.5.92 0 1.83.09 2.7.28.46.1.8.51.8.98v9.47z"></path>
  <path d="M13.98 11.01c-.32 0-.61-.2-.71-.52-.13-.39.09-.82.48-.94 1.54-.5 3.53-.66 5.36-.45.41.05.71.42.66.83-.05.41-.42.71-.83.66-1.62-.19-3.39-.04-4.73.39-.08.01-.16.03-.23.03zm0 2.66c-.32 0-.61-.2-.71-.52-.13-.39.09-.82.48-.94 1.53-.5 3.53-.66 5.36-.45.41.05.71.42.66.83-.05.41-.42.71-.83.66-1.62-.19-3.39-.04-4.73.39a.97.97 0 01-.23.03zm0 2.66c-.32 0-.61-.2-.71-.52-.13-.39.09-.82.48-.94 1.53-.5 3.53-.66 5.36-.45.41.05.71.42.66.83-.05.41-.42.7-.83.66-1.62-.19-3.39-.04-4.73.39a.97.97 0 01-.23.03z"></path>
</symbol><symbol viewBox="0 0 24 24" id="broken-image">
  <path d="M0 0h24v24H0V0z" fill="none"></path>
  <path d="M21 5v6.59l-2.29-2.3c-.39-.39-1.03-.39-1.42 0L14 12.59 10.71 9.3a.996.996 0 00-1.41 0L6 12.59 3 9.58V5c0-1.1.9-2 2-2h14c1.1 0 2 .9 2 2zm-3 6.42l3 3.01V19c0 1.1-.9 2-2 2H5c-1.1 0-2-.9-2-2v-6.58l2.29 2.29c.39.39 1.02.39 1.41 0l3.3-3.3 3.29 3.29c.39.39 1.02.39 1.41 0l3.3-3.28z"></path>
</symbol><symbol viewBox="0 0 24 24" id="calendar">
  <path d="M0 0h24v24H0z" fill="none"></path>
  <path d="M20 3h-1V1h-2v2H7V1H5v2H4c-1.1 0-2 .9-2 2v16c0 1.1.9 2 2 2h16c1.1 0 2-.9 2-2V5c0-1.1-.9-2-2-2zm0 18H4V8h16v13z"></path>
</symbol><symbol viewBox="0 0 24 24" id="camera-roll">
  <path d="M0 0h24v24H0z" fill="none"></path>
  <path d="M14 5c0-1.1-.9-2-2-2h-1V2c0-.55-.45-1-1-1H6c-.55 0-1 .45-1 1v1H4c-1.1 0-2 .9-2 2v15c0 1.1.9 2 2 2h8c1.1 0 2-.9 2-2h8V5h-8zm-2 13h-2v-2h2v2zm0-9h-2V7h2v2zm4 9h-2v-2h2v2zm0-9h-2V7h2v2zm4 9h-2v-2h2v2zm0-9h-2V7h2v2z"></path>
</symbol><symbol viewBox="0 0 24 24" id="check">
  <path d="M0 0h24v24H0V0z" fill="none"></path>
  <path d="M9 16.2l-3.5-3.5a.984.984 0 00-1.4 0 .984.984 0 000 1.4l4.19 4.19c.39.39 1.02.39 1.41 0L20.3 7.7a.984.984 0 000-1.4.984.984 0 00-1.4 0L9 16.2z"></path>
</symbol><symbol viewBox="0 0 24 24" id="clear">
  <path d="M0 0h24v24H0V0z" fill="none"></path>
  <path d="M19 6.41L17.59 5 12 10.59 6.41 5 5 6.41 10.59 12 5 17.59 6.41 19 12 13.41 17.59 19 19 17.59 13.41 12 19 6.41z"></path>
</symbol><symbol viewBox="0 0 24 24" id="close">
  <path d="M0 0h24v24H0V0z" fill="none"></path>
  <path d="M18.3 5.71a.996.996 0 00-1.41 0L12 10.59 7.11 5.7A.996.996 0 105.7 7.11L10.59 12 5.7 16.89a.996.996 0 101.41 1.41L12 13.41l4.89 4.89a.996.996 0 101.41-1.41L13.41 12l4.89-4.89c.38-.38.38-1.02 0-1.4z"></path>
</symbol><symbol viewBox="0 0 24 24" id="code">
  <path d="M0 0h24v24H0V0z" fill="none"></path>
  <path d="M8.7 15.9L4.8 12l3.9-3.9a.984.984 0 000-1.4.984.984 0 00-1.4 0l-4.59 4.59a.996.996 0 000 1.41l4.59 4.6c.39.39 1.01.39 1.4 0a.984.984 0 000-1.4zm6.6 0l3.9-3.9-3.9-3.9a.984.984 0 010-1.4.984.984 0 011.4 0l4.59 4.59c.39.39.39 1.02 0 1.41l-4.59 4.6a.984.984 0 01-1.4 0 .984.984 0 010-1.4z"></path>
</symbol><symbol viewBox="0 0 24 24" id="delete-x">
  <path d="M0 0h24v24H0z" fill="none"></path>
  <path d="M0 0h24v24H0V0z" fill="none"></path>
  <path d="M6 19c0 1.1.9 2 2 2h8c1.1 0 2-.9 2-2V7H6v12zm2.46-7.12l1.41-1.41L12 12.59l2.12-2.12 1.41 1.41L13.41 14l2.12 2.12-1.41 1.41L12 15.41l-2.12 2.12-1.41-1.41L10.59 14l-2.13-2.12zM15.5 4l-1-1h-5l-1 1H5v2h14V4z"></path>
</symbol><symbol viewBox="0 0 24 24" id="delete">
  <path d="M0 0h24v24H0z" fill="none"></path>
  <path d="M6 19c0 1.1.9 2 2 2h8c1.1 0 2-.9 2-2V7H6v12zM19 4h-3.5l-1-1h-5l-1 1H5v2h14V4z"></path>
</symbol><symbol viewBox="0 0 24 24" id="dials">
  <path d="M0 0h24v24H0V0z" fill="none"></path>
  <path d="M3 17v2h6v-2H3zM3 5v2h10V5H3zm10 16v-2h8v-2h-8v-2h-2v6h2zM7 9v2H3v2h4v2h2V9H7zm14 4v-2H11v2h10zm-6-4h2V7h4V5h-4V3h-2v6z"></path>
</symbol><symbol viewBox="0 0 24 24" id="document">
  <path d="M0 0h24v24H0V0z" fill="none"></path>
  <path d="M14.59 2.59c-.38-.38-.89-.59-1.42-.59H6c-1.1 0-2 .9-2 2v16c0 1.1.89 2 1.99 2H18c1.1 0 2-.9 2-2V8.83c0-.53-.21-1.04-.59-1.41l-4.82-4.83zM15 18H9c-.55 0-1-.45-1-1s.45-1 1-1h6c.55 0 1 .45 1 1s-.45 1-1 1zm0-4H9c-.55 0-1-.45-1-1s.45-1 1-1h6c.55 0 1 .45 1 1s-.45 1-1 1zm-2-6V3.5L18.5 9H14c-.55 0-1-.45-1-1z"></path>
</symbol><symbol viewBox="0 0 24 24" id="edit">
  <path d="M0 0h24v24H0z" fill="none"></path>
  <path d="M3 17.25V21h3.75L17.81 9.94l-3.75-3.75L3 17.25zM20.71 7.04a.996.996 0 000-1.41l-2.34-2.34a.996.996 0 00-1.41 0l-1.83 1.83 3.75 3.75 1.83-1.83z"></path>
</symbol><symbol viewBox="0 0 24 24" id="folder">
  <path d="M0 0h24v24H0z" fill="none"></path>
  <path d="M10 4H4c-1.1 0-1.99.9-1.99 2L2 18c0 1.1.9 2 2 2h16c1.1 0 2-.9 2-2V8c0-1.1-.9-2-2-2h-8l-2-2z"></path>
</symbol><symbol viewBox="0 0 24 24" id="font">
  <path d="M0 0h24v24H0V0z" fill="none"></path>
  <path d="M9 5.5c0 .83.67 1.5 1.5 1.5H14v10.5c0 .83.67 1.5 1.5 1.5s1.5-.67 1.5-1.5V7h3.5c.83 0 1.5-.67 1.5-1.5S21.33 4 20.5 4h-10C9.67 4 9 4.67 9 5.5zM4.5 12H6v5.5c0 .83.67 1.5 1.5 1.5S9 18.33 9 17.5V12h1.5c.83 0 1.5-.67 1.5-1.5S11.33 9 10.5 9h-6C3.67 9 3 9.67 3 10.5S3.67 12 4.5 12z"></path>
</symbol><symbol viewBox="0 0 24 24" id="gear">
  <path d="M0 0h24v24H0V0z" fill="none"></path>
  <path d="M19.43 12.98c.04-.32.07-.64.07-.98s-.03-.66-.07-.98l2.11-1.65c.19-.15.24-.42.12-.64l-2-3.46c-.12-.22-.39-.3-.61-.22l-2.49 1c-.52-.4-1.08-.73-1.69-.98l-.38-2.65A.488.488 0 0014 2h-4c-.25 0-.46.18-.49.42l-.38 2.65c-.61.25-1.17.59-1.69.98l-2.49-1c-.23-.09-.49 0-.61.22l-2 3.46c-.13.22-.07.49.12.64l2.11 1.65c-.04.32-.07.65-.07.98s.03.66.07.98l-2.11 1.65c-.19.15-.24.42-.12.64l2 3.46c.12.22.39.3.61.22l2.49-1c.52.4 1.08.73 1.69.98l.38 2.65c.03.24.24.42.49.42h4c.25 0 .46-.18.49-.42l.38-2.65c.61-.25 1.17-.59 1.69-.98l2.49 1c.23.09.49 0 .61-.22l2-3.46c.12-.22.07-.49-.12-.64l-2.11-1.65zM12 15.5c-1.93 0-3.5-1.57-3.5-3.5s1.57-3.5 3.5-3.5 3.5 1.57 3.5 3.5-1.57 3.5-3.5 3.5z"></path>
</symbol><symbol viewBox="0 0 24 24" id="image-full">
  <path d="M0 0h24v24H0z" fill="none"></path>
  <path d="M21 19V5c0-1.1-.9-2-2-2H5c-1.1 0-2 .9-2 2v14c0 1.1.9 2 2 2h14c1.1 0 2-.9 2-2zM8.5 13.5l2.5 3.01L14.5 12l4.5 6H5l3.5-4.5z"></path>
</symbol><symbol viewBox="0 0 24 24" id="image-search">
  <path d="M0 0h24v24H0z" fill="none"></path>
  <path d="M0 0h24v24H0V0z" fill="none"></path>
  <path d="M18 13v7H4V6h5.02c.05-.71.22-1.38.48-2H4c-1.1 0-2 .9-2 2v14c0 1.1.9 2 2 2h14c1.1 0 2-.9 2-2v-5l-2-2zm-1.5 5h-11l2.75-3.53 1.96 2.36 2.75-3.54zm2.8-9.11c.44-.7.7-1.51.7-2.39C20 4.01 17.99 2 15.5 2S11 4.01 11 6.5s2.01 4.5 4.49 4.5c.88 0 1.7-.26 2.39-.7L21 13.42 22.42 12 19.3 8.89zM15.5 9a2.5 2.5 0 010-5 2.5 2.5 0 010 5z"></path>
</symbol><symbol viewBox="0 0 24 24" id="image-square">
  <path d="M0 0h24v24H0V0z" fill="none"></path>
  <path d="M19 3H5c-1.1 0-2 .9-2 2v14c0 1.1.9 2 2 2h14c1.1 0 2-.9 2-2V5c0-1.1-.9-2-2-2zm-1 16H6c-.55 0-1-.45-1-1V6c0-.55.45-1 1-1h12c.55 0 1 .45 1 1v12c0 .55-.45 1-1 1zm-4.44-6.19l-2.35 3.02-1.56-1.88a.5.5 0 00-.78.01l-1.74 2.23a.5.5 0 00.39.81h8.98a.5.5 0 00.4-.8l-2.55-3.39a.498.498 0 00-.79 0z"></path>
</symbol><symbol viewBox="0 0 24 24" id="info">
  <path d="M0 0h24v24H0V0z" fill="none"></path>
  <path d="M12 2C6.48 2 2 6.48 2 12s4.48 10 10 10 10-4.48 10-10S17.52 2 12 2zm0 15c-.55 0-1-.45-1-1v-4c0-.55.45-1 1-1s1 .45 1 1v4c0 .55-.45 1-1 1zm1-8h-2V7h2v2z"></path>
</symbol><symbol viewBox="0 0 24 24" id="launch">
  <path d="M0 0h24v24H0z" fill="none"></path>
  <path d="M19 19H5V5h7V3H5a2 2 0 00-2 2v14a2 2 0 002 2h14c1.1 0 2-.9 2-2v-7h-2v7zM14 3v2h3.59l-9.83 9.83 1.41 1.41L19 6.41V10h2V3h-7z"></path>
</symbol><symbol viewBox="0 0 24 24" id="list-bullets">
  <path d="M4 10.5c-.83 0-1.5.67-1.5 1.5s.67 1.5 1.5 1.5 1.5-.67 1.5-1.5-.67-1.5-1.5-1.5zm0-6c-.83 0-1.5.67-1.5 1.5S3.17 7.5 4 7.5 5.5 6.83 5.5 6 4.83 4.5 4 4.5zm0 12c-.83 0-1.5.68-1.5 1.5s.68 1.5 1.5 1.5 1.5-.68 1.5-1.5-.67-1.5-1.5-1.5zM7 19h14v-2H7v2zm0-6h14v-2H7v2zm0-8v2h14V5H7z"></path>
</symbol><symbol viewBox="0 0 24 24" id="location">
  <path d="M0 0h24v24H0V0z" fill="none"></path>
  <path d="M12 2C8.13 2 5 5.13 5 9c0 4.17 4.42 9.92 6.24 12.11.4.48 1.13.48 1.53 0C14.58 18.92 19 13.17 19 9c0-3.87-3.13-7-7-7zm0 9.5a2.5 2.5 0 010-5 2.5 2.5 0 010 5z"></path>
</symbol><symbol viewBox="0 0 24 24" id="more-horizontal">
  <path d="M0 0h24v24H0V0z" fill="none"></path>
  <path d="M6 10c-1.1 0-2 .9-2 2s.9 2 2 2 2-.9 2-2-.9-2-2-2zm12 0c-1.1 0-2 .9-2 2s.9 2 2 2 2-.9 2-2-.9-2-2-2zm-6 0c-1.1 0-2 .9-2 2s.9 2 2 2 2-.9 2-2-.9-2-2-2z"></path>
</symbol><symbol viewBox="0 0 24 24" id="more-vertical">
  <path d="M0 0h24v24H0V0z" fill="none"></path>
  <path d="M12 8c1.1 0 2-.9 2-2s-.9-2-2-2-2 .9-2 2 .9 2 2 2zm0 2c-1.1 0-2 .9-2 2s.9 2 2 2 2-.9 2-2-.9-2-2-2zm0 6c-1.1 0-2 .9-2 2s.9 2 2 2 2-.9 2-2-.9-2-2-2z"></path>
</symbol><symbol viewBox="0 0 24 24" id="movie">
  <path d="M0 0h24v24H0V0z" fill="none"></path>
  <path d="M18 4v1h-2V4c0-.55-.45-1-1-1H9c-.55 0-1 .45-1 1v1H6V4c0-.55-.45-1-1-1s-1 .45-1 1v16c0 .55.45 1 1 1s1-.45 1-1v-1h2v1c0 .55.45 1 1 1h6c.55 0 1-.45 1-1v-1h2v1c0 .55.45 1 1 1s1-.45 1-1V4c0-.55-.45-1-1-1s-1 .45-1 1zM8 17H6v-2h2v2zm0-4H6v-2h2v2zm0-4H6V7h2v2zm10 8h-2v-2h2v2zm0-4h-2v-2h2v2zm0-4h-2V7h2v2z"></path>
</symbol><symbol viewBox="0 0 24 24" id="music-note">
  <path d="M0 0h24v24H0V0z" fill="none"></path>
  <path d="M12 5v8.55c-.94-.54-2.1-.75-3.33-.32-1.34.48-2.37 1.67-2.61 3.07a4.007 4.007 0 004.59 4.65c1.96-.31 3.35-2.11 3.35-4.1V7h2c1.1 0 2-.9 2-2s-.9-2-2-2h-2c-1.1 0-2 .9-2 2z"></path>
</symbol><symbol viewBox="0 0 24 24" id="play-circle">
  <path d="M10.8 15.9l4.67-3.5c.27-.2.27-.6 0-.8L10.8 8.1a.5.5 0 00-.8.4v7c0 .41.47.65.8.4zM12 2C6.48 2 2 6.48 2 12s4.48 10 10 10 10-4.48 10-10S17.52 2 12 2zm0 18c-4.41 0-8-3.59-8-8s3.59-8 8-8 8 3.59 8 8-3.59 8-8 8z"></path>
</symbol><symbol viewBox="0 0 24 24" id="play">
  <path d="M8 6.82v10.36c0 .79.87 1.27 1.54.84l8.14-5.18a1 1 0 000-1.69L9.54 5.98A.998.998 0 008 6.82z"></path>
</symbol><symbol viewBox="0 0 24 24" id="question-circle">
  <path d="M0 0h24v24H0V0z" fill="none"></path>
  <path d="M12 2C6.48 2 2 6.48 2 12s4.48 10 10 10 10-4.48 10-10S17.52 2 12 2zm0 18c-4.41 0-8-3.59-8-8s3.59-8 8-8 8 3.59 8 8-3.59 8-8 8zm-1-4h2v2h-2zm1.61-9.96c-2.06-.3-3.88.97-4.43 2.79-.18.58.26 1.17.87 1.17h.2c.41 0 .74-.29.88-.67.32-.89 1.27-1.5 2.3-1.28.95.2 1.65 1.13 1.57 2.1-.1 1.34-1.62 1.63-2.45 2.88 0 .01-.01.01-.01.02-.01.02-.02.03-.03.05-.09.15-.18.32-.25.5-.01.03-.03.05-.04.08-.01.02-.01.04-.02.07-.12.34-.2.75-.2 1.25h2c0-.42.11-.77.28-1.07.02-.03.03-.06.05-.09.08-.14.18-.27.28-.39.01-.01.02-.03.03-.04.1-.12.21-.23.33-.34.96-.91 2.26-1.65 1.99-3.56-.24-1.74-1.61-3.21-3.35-3.47z"></path>
</symbol><symbol viewBox="0 0 24 24" id="question">
  <path d="M0 0h24v24H0z" fill="none"></path>
  <path d="M12 2C6.48 2 2 6.48 2 12s4.48 10 10 10 10-4.48 10-10S17.52 2 12 2zm1 17h-2v-2h2v2zm2.07-7.75l-.9.92C13.45 12.9 13 13.5 13 15h-2v-.5c0-1.1.45-2.1 1.17-2.83l1.24-1.26c.37-.36.59-.86.59-1.41 0-1.1-.9-2-2-2s-2 .9-2 2H8c0-2.21 1.79-4 4-4s4 1.79 4 4c0 .88-.36 1.68-.93 2.25z"></path>
</symbol><symbol viewBox="0 0 24 24" id="search">
  <path d="M0 0h24v24H0V0z" fill="none"></path>
  <path d="M15.5 14h-.79l-.28-.27a6.5 6.5 0 001.48-5.34c-.47-2.78-2.79-5-5.59-5.34a6.505 6.505 0 00-7.27 7.27c.34 2.8 2.56 5.12 5.34 5.59a6.5 6.5 0 005.34-1.48l.27.28v.79l4.25 4.25c.41.41 1.08.41 1.49 0 .41-.41.41-1.08 0-1.49L15.5 14zm-6 0C7.01 14 5 11.99 5 9.5S7.01 5 9.5 5 14 7.01 14 9.5 11.99 14 9.5 14z"></path>
</symbol><symbol viewBox="0 0 24 24" id="server">
  <path d="M0 0h24v24H0V0z" fill="none"></path>
  <path d="M19 13H5c-1.1 0-2 .9-2 2v4c0 1.1.9 2 2 2h14c1.1 0 2-.9 2-2v-4c0-1.1-.9-2-2-2zM7 19c-1.1 0-2-.9-2-2s.9-2 2-2 2 .9 2 2-.9 2-2 2zM19 3H5c-1.1 0-2 .9-2 2v4c0 1.1.9 2 2 2h14c1.1 0 2-.9 2-2V5c0-1.1-.9-2-2-2zM7 9c-1.1 0-2-.9-2-2s.9-2 2-2 2 .9 2 2-.9 2-2 2z"></path>
</symbol><symbol viewBox="0 0 24 24" id="shape">
  <path d="M0 0h24v24H0V0z" fill="none"></path>
  <path d="M23 6V2c0-.55-.45-1-1-1h-4c-.55 0-1 .45-1 1v1H7V2c0-.55-.45-1-1-1H2c-.55 0-1 .45-1 1v4c0 .55.45 1 1 1h1v10H2c-.55 0-1 .45-1 1v4c0 .55.45 1 1 1h4c.55 0 1-.45 1-1v-1h10v1c0 .55.45 1 1 1h4c.55 0 1-.45 1-1v-4c0-.55-.45-1-1-1h-1V7h1c.55 0 1-.45 1-1zM3 3h2v2H3V3zm2 18H3v-2h2v2zm12-2H7v-1c0-.55-.45-1-1-1H5V7h1c.55 0 1-.45 1-1V5h10v1c0 .55.45 1 1 1h1v10h-1c-.55 0-1 .45-1 1v1zm4 2h-2v-2h2v2zM19 5V3h2v2h-2zm-6.06 2.65a1.02 1.02 0 00-.95-.65c-.42 0-.8.26-.94.65l-2.77 7.33c-.19.49.17 1.02.7 1.02.32 0 .6-.2.71-.5l.55-1.5h3.49l.56 1.51c.11.29.39.49.71.49h.01c.53 0 .89-.53.71-1.02l-2.78-7.33zm-2.25 5.09L12 8.91l1.3 3.83h-2.61z"></path>
</symbol><symbol viewBox="0 0 24 24" id="stop-sign">
  <path d="M0 0h24v24H0V0z" fill="none"></path>
  <path d="M15.73 3H8.27L3 8.27v7.46L8.27 21h7.46L21 15.73V8.27L15.73 3zM12 17.3c-.72 0-1.3-.58-1.3-1.3s.58-1.3 1.3-1.3 1.3.58 1.3 1.3-.58 1.3-1.3 1.3zm1-4.3h-2V7h2v6z"></path>
</symbol><symbol viewBox="0 0 24 24" id="storage">
  <path d="M0 0h24v24H0V0z" fill="none"></path>
  <path d="M4 20h16c1.1 0 2-.9 2-2s-.9-2-2-2H4c-1.1 0-2 .9-2 2s.9 2 2 2zm0-3h2v2H4v-2zM2 6c0 1.1.9 2 2 2h16c1.1 0 2-.9 2-2s-.9-2-2-2H4c-1.1 0-2 .9-2 2zm4 1H4V5h2v2zm-2 7h16c1.1 0 2-.9 2-2s-.9-2-2-2H4c-1.1 0-2 .9-2 2s.9 2 2 2zm0-3h2v2H4v-2z"></path>
</symbol><symbol viewBox="0 0 24 24" id="view-list">
  <path d="M0 0h24v24H0V0z" fill="none" opacity=".87"></path>
  <path d="M4 14h2c.55 0 1-.45 1-1v-2c0-.55-.45-1-1-1H4c-.55 0-1 .45-1 1v2c0 .55.45 1 1 1zm0 5h2c.55 0 1-.45 1-1v-2c0-.55-.45-1-1-1H4c-.55 0-1 .45-1 1v2c0 .55.45 1 1 1zM4 9h2c.55 0 1-.45 1-1V6c0-.55-.45-1-1-1H4c-.55 0-1 .45-1 1v2c0 .55.45 1 1 1zm5 5h10c.55 0 1-.45 1-1v-2c0-.55-.45-1-1-1H9c-.55 0-1 .45-1 1v2c0 .55.45 1 1 1zm0 5h10c.55 0 1-.45 1-1v-2c0-.55-.45-1-1-1H9c-.55 0-1 .45-1 1v2c0 .55.45 1 1 1zM8 6v2c0 .55.45 1 1 1h10c.55 0 1-.45 1-1V6c0-.55-.45-1-1-1H9c-.55 0-1 .45-1 1z"></path>
</symbol><symbol viewBox="0 0 24 24" id="view-tiles-small">
  <path d="M0 0h24v24H0V0z" fill="none"></path>
  <path d="M3 9h4V5H5c-1.1 0-2 .9-2 2v2zm0 5h4v-4H3v4zm5 0h4v-4H8v4zm5 0h4v-4h-4v4zM8 9h4V5H8v4zm5-4v4h4V5h-4zm5 9h4v-4h-4v4zM5 19h2v-4H3v2c0 1.1.9 2 2 2zm3 0h4v-4H8v4zm5 0h4v-4h-4v4zm5 0h2c1.1 0 2-.9 2-2v-2h-4v4zm0-14v4h4V7c0-1.1-.9-2-2-2h-2z"></path>
</symbol><symbol viewBox="0 0 24 24" id="view-tiles">
  <path d="M0 0h24v24H0V0z" fill="none"></path>
  <path d="M5 11h3c.55 0 1-.45 1-1V6c0-.55-.45-1-1-1H5c-.55 0-1 .45-1 1v4c0 .55.45 1 1 1zm0 7h3c.55 0 1-.45 1-1v-4c0-.55-.45-1-1-1H5c-.55 0-1 .45-1 1v4c0 .55.45 1 1 1zm6 0h3c.55 0 1-.45 1-1v-4c0-.55-.45-1-1-1h-3c-.55 0-1 .45-1 1v4c0 .55.45 1 1 1zm6 0h3c.55 0 1-.45 1-1v-4c0-.55-.45-1-1-1h-3c-.55 0-1 .45-1 1v4c0 .55.45 1 1 1zm-6-7h3c.55 0 1-.45 1-1V6c0-.55-.45-1-1-1h-3c-.55 0-1 .45-1 1v4c0 .55.45 1 1 1zm5-5v4c0 .55.45 1 1 1h3c.55 0 1-.45 1-1V6c0-.55-.45-1-1-1h-3c-.55 0-1 .45-1 1z"></path>
</symbol><symbol viewBox="0 0 24 24" id="volume">
  <path d="M0 0h24v24H0V0z" fill="none"></path>
  <path d="M3 9v6h4l5 5V4L7 9H3zm13.5 3A4.5 4.5 0 0014 7.97v8.05c1.48-.73 2.5-2.25 2.5-4.02zM14 3.23v2.06c2.89.86 5 3.54 5 6.71s-2.11 5.85-5 6.71v2.06c4.01-.91 7-4.49 7-8.77s-2.99-7.86-7-8.77z"></path>
</symbol><symbol viewBox="0 0 24 24" id="warning">
  <path d="M4.47 21h15.06c1.54 0 2.5-1.67 1.73-3L13.73 4.99c-.77-1.33-2.69-1.33-3.46 0L2.74 18c-.77 1.33.19 3 1.73 3zM12 14c-.55 0-1-.45-1-1v-2c0-.55.45-1 1-1s1 .45 1 1v2c0 .55-.45 1-1 1zm1 4h-2v-2h2v2z"></path>
</symbol></svg>