<svg xmlns="http://www.w3.org/2000/svg" viewBox="0 0 512.001 512.001">
  <path d="M149.773 35.326a16.154 16.154 0 00-10.477-3.862H37.65c-8.912 0-16.134 7.223-16.134 16.134v124.773h32.269V63.734h79.564l61.623 52.609a16.154 16.154 0 0010.477 3.862h48.941v-32.27h-42.988l-61.629-52.609zm324.583 52.609h-70.454v32.269h54.319v52.168h32.269V104.07c0-8.912-7.223-16.135-16.134-16.135z"/>
  <path d="M507.587 161.283a16.133 16.133 0 00-11.719-5.045H16.137A16.138 16.138 0 00.024 173.26l16.134 292.571c.473 8.557 7.546 15.247 16.113 15.247h447.462c8.567 0 15.645-6.69 16.108-15.247l16.134-292.571a16.104 16.104 0 00-4.388-11.977zm-43.116 287.526H47.545l-14.36-260.302h445.639l-14.353 260.302z"/>
  <path d="M391.607 40.188a16.157 16.157 0 00-9.137-8.315 16.13 16.13 0 00-12.343.592L104.446 157.776l13.768 29.187L369.283 68.542l52.824 112.307 29.203-13.736-59.703-126.925z"/>
</svg>
