<svg xmlns="http://www.w3.org/2000/svg" viewBox="0 0 334.592 334.592">
  <path d="M271.317 309.168l-33.247-33.247c-1.032-1.033-2.323-1.578-3.73-1.578a5.634 5.634 0 00-2.778.739c-9.706 5.823-20.743 8.9-31.918 8.901h-.003c-16.371 0-31.9-6.511-43.724-18.334-24.448-24.449-24.448-64.232 0-88.683 11.826-11.824 27.573-18.336 44.343-18.336s32.518 6.512 44.342 18.336c10.085 10.085 16.279 22.731 17.913 36.568 1.585 13.438-1.427 27.316-8.484 39.08-1.018 1.709-1.211 4.451.772 6.436l33.315 33.316c2.878 2.876 4.696 6.31 5.119 9.663.286 2.296.039 5.626-2.79 8.454l-1.012 1.012c-1.886 1.886-4.304 2.883-6.996 2.883-3.756.001-7.811-1.898-11.122-5.21zm-107.008-123.81c-9.589 9.588-14.869 22.355-14.869 35.95s5.28 26.362 14.869 35.952c9.59 9.589 22.356 14.868 35.951 14.868 13.596 0 26.361-5.279 35.951-14.868 9.589-9.59 14.869-22.357 14.869-35.952s-5.28-26.362-14.869-35.95c-9.59-9.589-22.357-14.868-35.951-14.868-13.596 0-26.363 5.279-35.951 14.868z"/>
  <path d="M323.544 80.107h-18.367c-2.064 0-1.753-3.068-1.753-3.068v-9.207c0-12.087-9.834-21.921-21.922-21.921H131.525c-1.007 0-2.225-2.023-4.411-6.274a180.51 180.51 0 00-.986-1.898c-7.644-14.485-17.565-17.525-24.542-17.525H62.567c-9.864 0-15.751 5.729-22.686 17.03-.452.736-.896 1.483-1.338 2.23-2.235 3.77-3.919 6.437-5.218 6.437H21.922C9.834 45.911 0 55.745 0 67.832v182.24c0 10.712 7.725 19.647 17.894 21.544 1.23.432 2.579.675 4.028.675h112.807c5.821 0 2.928-3.758 1.454-5.721-22.929-30.572-20.504-74.263 7.285-102.053 14.732-14.73 34.348-22.843 55.23-22.843 20.886 0 40.5 8.112 55.23 22.843 12.559 12.56 20.275 28.331 22.314 45.609 1.73 14.67-.922 29.749-7.494 43.105-.586 1.189-1.907 3.466-.041 5.332l12.392 12.392s1.331 1.335 2.823 1.335h5.425c7.233 0 14.189-5.828 15.456-12.949l29.589-166.285c1.268-7.121-3.614-12.949-10.848-12.949zm-39.411 0H56.117c-7.233 0-14.189 5.828-15.456 12.949L18.659 216.702s-1.123 4.138-1.123-3.535V67.831c0-2.377 2.008-4.384 4.386-4.384h11.403c11.389 0 16.752-9.045 20.302-15.029.396-.67.795-1.341 1.199-2.003 3.53-5.751 6.289-8.667 9.641-8.667h37.119c1.167 0 4.719 0 9.032 8.173.305.578.604 1.159.901 1.736 3.234 6.288 8.122 15.79 20.006 15.79h149.976c2.378 0 4.385 2.007 4.385 4.384v8.768c.001.001.274 3.508-1.753 3.508z"/>
</svg>
